<?xml version="1.0" encoding="UTF-8"?>
<svg xmlns="http://www.w3.org/2000/svg" viewBox="0 0 512 512" width="512" height="512">
  <!-- Background with rounded corners -->
  <rect width="512" height="512" fill="#2979ff" rx="80"/>
  <!-- Material Symbols video_settings icon (scaled and centered) -->
  <g transform="translate(106, 106) scale(12.5)">
    <path fill="#ffffff" d="M11.8 15.8l.4 2 1.6.4q.4.2.8.4l1.6-.6 1 1.7-1.4 1.2q.1.4.1.9t-.1.9l1.4 1.2-1 1.7-1.6-.6q-.4.3-.8.5l-.4 1.6h-2l-.4-1.6q-.4-.2-.8-.5l-1.6.6-1-1.7 1.4-1.2q-.1-.4-.1-.9t.1-.9l-1.4-1.2 1-1.7 1.6.6q.4-.3.8-.5l.4-1.6h2m-1 4.7q-.6 0-1.05-.45T9.3 19q0-.6.45-1.05T10.8 17.5q.6 0 1.05.45t.45 1.05q0 .6-.45 1.05T10.8 20.5M4 21V5q0-.8.6-1.4T6 3h12q.8 0 1.4.6T20 5v5.5q-.5-.3-1.05-.5T17.8 9.7V6H6v12h5.1q.1.6.3 1.15t.5 1.05q-.7.6-1.6.7L10 21H6q-.8 0-1.4-.6T4 19"/>
  </g>
</svg>
